<?xml version="1.0" encoding="UTF-8"?>
<!DOCTYPE svg PUBLIC "-//W3C//DTD SVG 1.1//EN" "http://www.w3.org/Graphics/SVG/1.1/DTD/svg11.dtd">
<svg version="1.1" xmlns="http://www.w3.org/2000/svg" xmlns:xlink="http://www.w3.org/1999/xlink" x="0" y="0" width="128" height="128" viewBox="0, 0, 128, 128">
  <g id="Layer_1">
    <g>
      <path d="M21.5,12.5 L75.5,12.5 C80.471,12.5 84.5,17.276 84.5,23.167 L84.5,97.833 C84.5,103.724 80.471,108.5 75.5,108.5 L21.5,108.5 C16.529,108.5 12.5,103.724 12.5,97.833 L12.5,23.167 C12.5,17.276 16.529,12.5 21.5,12.5 z" fill="#FFFFFF"/>
      <path d="M21.5,12.5 L75.5,12.5 C80.471,12.5 84.5,17.276 84.5,23.167 L84.5,97.833 C84.5,103.724 80.471,108.5 75.5,108.5 L21.5,108.5 C16.529,108.5 12.5,103.724 12.5,97.833 L12.5,23.167 C12.5,17.276 16.529,12.5 21.5,12.5 z" fill-opacity="0" stroke="#000000" stroke-width="3"/>
    </g>
    <path d="M24.5,48.5 L72.5,48.5" fill-opacity="0" stroke="#000000" stroke-width="3"/>
    <g>
      <path d="M72.5,60.5 L108.5,60.5 C115.127,60.5 120.5,65.873 120.5,72.5 L120.5,108.5 C120.5,115.127 115.127,120.5 108.5,120.5 L72.5,120.5 C65.873,120.5 60.5,115.127 60.5,108.5 L60.5,72.5 C60.5,65.873 65.873,60.5 72.5,60.5 z" fill="#FFFFFF"/>
      <path d="M72.5,60.5 L108.5,60.5 C115.127,60.5 120.5,65.873 120.5,72.5 L120.5,108.5 C120.5,115.127 115.127,120.5 108.5,120.5 L72.5,120.5 C65.873,120.5 60.5,115.127 60.5,108.5 L60.5,72.5 C60.5,65.873 65.873,60.5 72.5,60.5 z" fill-opacity="0" stroke="#000000" stroke-width="3"/>
    </g>
    <path d="M24.5,24.5 L72.5,24.5" fill-opacity="0" stroke="#000000" stroke-width="3"/>
    <path d="M24.5,36.5 L72.5,36.5" fill-opacity="0" stroke="#000000" stroke-width="3"/>
    <path d="M72.5,72.5 L108.5,72.5" fill-opacity="0" stroke="#000000" stroke-width="3"/>
    <path d="M72.5,84.5 L108.5,84.5" fill-opacity="0" stroke="#000000" stroke-width="3"/>
    <path d="M72.5,96.5 L108.5,96.5" fill-opacity="0" stroke="#000000" stroke-width="3"/>
  </g>
</svg>
