<?xml version="1.0" encoding="UTF-8" standalone="no"?>
<svg width="256" height="64" viewBox="0 0 256 64" fill="none" xmlns="http://www.w3.org/2000/svg">
  <!-- Play Icon -->
  <g id="play_icon">
    <circle cx="32" cy="32" r="28" fill="#4CAF50" stroke="#2E7D32" stroke-width="2"/>
    <path d="M24 20L45 32L24 44V20Z" fill="white"/>
  </g>
  
  <!-- Pause Icon -->
  <g id="pause_icon">
    <circle cx="96" cy="32" r="28" fill="#2196F3" stroke="#0D47A1" stroke-width="2"/>
    <rect x="86" y="20" width="8" height="24" rx="2" fill="white"/>
    <rect x="98" y="20" width="8" height="24" rx="2" fill="white"/>
  </g>
  
  <!-- Settings Icon -->
  <g id="settings_icon">
    <circle cx="160" cy="32" r="28" fill="#9C27B0" stroke="#6A1B9A" stroke-width="2"/>
    <path d="M160 18C159.209 18 158.435 18.062 157.682 18.182L156.455 22.091C155.455 22.364 154.5 22.727 153.636 23.182L150 21.182C148.727 22.182 147.636 23.364 146.727 24.636L148.727 28.273C148.273 29.182 147.909 30.091 147.636 31.091L143.727 32.318C143.636 33.091 143.545 33.864 143.545 34.636C143.545 35.409 143.636 36.182 143.727 36.955L147.636 38.182C147.909 39.182 148.273 40.091 148.727 41L146.727 44.636C147.636 45.909 148.727 47.091 150 48.091L153.636 46.091C154.5 46.545 155.455 46.909 156.455 47.182L157.682 51.091C158.435 51.182 159.209 51.273 160 51.273C160.791 51.273 161.564 51.182 162.318 51.091L163.545 47.182C164.545 46.909 165.5 46.545 166.364 46.091L170 48.091C171.273 47.091 172.364 45.909 173.273 44.636L171.273 41C171.727 40.091 172.091 39.182 172.364 38.182L176.273 36.955C176.364 36.182 176.455 35.409 176.455 34.636C176.455 33.864 176.364 33.091 176.273 32.318L172.364 31.091C172.091 30.091 171.727 29.182 171.273 28.273L173.273 24.636C172.364 23.364 171.273 22.182 170 21.182L166.364 23.182C165.5 22.727 164.545 22.364 163.545 22.091L162.318 18.182C161.564 18.062 160.791 18 160 18ZM160 30.909C162.091 30.909 163.727 32.545 163.727 34.636C163.727 36.727 162.091 38.364 160 38.364C157.909 38.364 156.273 36.727 156.273 34.636C156.273 32.545 157.909 30.909 160 30.909Z" fill="white"/>
  </g>
  
  <!-- Exit Icon -->
  <g id="exit_icon">
    <circle cx="224" cy="32" r="28" fill="#F44336" stroke="#B71C1C" stroke-width="2"/>
    <path d="M212 22L236 46M236 22L212 46" stroke="white" stroke-width="6" stroke-linecap="round"/>
  </g>
</svg> 